PathFileType	4	(x/y/z)	S06_P20_T62
DataRate	CameraRate	NumFrames	NumMarkers	Units	OrigDataRate	OrigDataStartFrame	OrigNumFrames
240	240	9	51	mm	240	87	347
Frame#	Time	Sternum			R.Acromium			L.Acromium			Top.Head			R.ASIS			L.ASIS			R.PSIS			L.PSIS			R.Great.Tro			L.Great.Tro			R.Iliac.Crest			L.Iliac.Crest			V.Sacral			R.Thigh.Upper.Post			R.Thigh.Lower.Ant			R.Thigh.Lower.Post			R.Thigh.Upper.Ant			R.Knee.Lat			R.Knee.Med			R.Shank.Upper.Post			R.Shank.Lower.Ant			R.Shank.Lower.Post			R.Shank.Upper.Ant			R.Ankle.Lat			R.Ankle.Med			R.Heel.Upper			R.Heel.Med			R.Heel.Lat			R.Toe.Lat			R.Toe.Med			R.Toe.Tip			L.Thigh.Upper.Post			L.Thigh.Lower.Ant			L.Thigh.Lower.Post			L.Thigh.Upper.Ant			L.Knee.Lat			L.Knee.Med			L.Shank.Upper.Post			L.Shank.Lower.Ant			L.Shank.Lower.Post			L.Shank.Upper.Ant			L.Ankle.Lat			L.Ankle.Med			L.Heel.Upper			L.Heel.Med			L.Heel.Lat			L.Toe.Lat			L.Toe.Med			L.Toe.Tip			Cervical.Spine			Back			
		X1	Y1	Z1	X2	Y2	Z2	X3	Y3	Z3	X4	Y4	Z4	X5	Y5	Z5	X6	Y6	Z6	X7	Y7	Z7	X8	Y8	Z8	X9	Y9	Z9	X10	Y10	Z10	X11	Y11	Z11	X12	Y12	Z12	X13	Y13	Z13	X14	Y14	Z14	X15	Y15	Z15	X16	Y16	Z16	X17	Y17	Z17	X18	Y18	Z18	X19	Y19	Z19	X20	Y20	Z20	X21	Y21	Z21	X22	Y22	Z22	X23	Y23	Z23	X24	Y24	Z24	X25	Y25	Z25	X26	Y26	Z26	X27	Y27	Z27	X28	Y28	Z28	X29	Y29	Z29	X30	Y30	Z30	X31	Y31	Z31	X32	Y32	Z32	X33	Y33	Z33	X34	Y34	Z34	X35	Y35	Z35	X36	Y36	Z36	X37	Y37	Z37	X38	Y38	Z38	X39	Y39	Z39	X40	Y40	Z40	X41	Y41	Z41	X42	Y42	Z42	X43	Y43	Z43	X44	Y44	Z44	X45	Y45	Z45	X46	Y46	Z46	X47	Y47	Z47	X48	Y48	Z48	X49	Y49	Z49	X50	Y50	Z50	X51	Y51	Z51	

87	0.35833	-813.81	1287.2	325.4	-936.38	1498.1	492.53	-930.07	1501.5	140.48	-933.13	1815.5	312.42	-880.87	1055.9	442.43	-867.85	1050.8	189.91	NaN	NaN	NaN	-1077.1	1088.2	262.82	-934.5	990.32	492.85	-968.97	988.41	132.2	-968.42	1131.9	472.43	-935.59	1129.3	153.16	-1089.2	1050.4	305.05	-836.15	762.56	488.89	-747.16	710.04	456.44	-807.05	676.73	471.6	-770.44	797.27	468.25	-748.62	582.19	461.71	-738.38	587.39	333.23	-806.27	362.38	458.82	-749.63	294.26	444.41	-815.55	286.23	444.69	-742.01	369.19	457.04	-790.92	149.44	426.11	-769.19	152.26	338.67	-853.09	108.78	368.06	-840.12	77.911	339.98	-848.69	78.726	403.94	-680.04	72.172	466.86	-639.01	78.266	351.85	-581.24	94.754	404.76	-936.35	721.32	158.89	-897.73	638.11	222.5	-962.45	636.93	176.97	-871.42	727.71	198.39	-992.53	542.31	194.83	-970.28	547.99	315.79	-1078.4	323.55	204.75	-1024.6	252.67	210.98	-1096.6	253.91	222.9	-1011.9	321.1	198.66	-1077.8	108.9	226.14	-1073.5	111.52	317.27	-1158.4	75.978	264.49	-1156.1	46.927	295.18	-1150.1	51.657	233.65	-970.72	44.375	203.22	-957.1	42.002	324.94	-881.79	54.713	274.83	-990.32	1553.7	316.24	-1057.1	1285.9	310.18
88	0.3625	-808.46	1286.7	325.53	-931.21	1497.6	492.67	-924.71	1501.1	140.6	-927.82	1815.1	312.61	-875.41	1055.5	442.67	-862.54	1050.1	190.13	NaN	NaN	NaN	-1072.1	1087.8	263.03	-929.06	989.84	493.18	-963.87	987.84	132.47	-963.02	1131.5	472.63	-930.63	1128.7	153.58	-1083.7	1050	305.33	-832.54	761.65	488.97	-743.28	708.53	456.28	-803.36	675.54	471.5	-766.05	795.87	468.17	-744.74	580.98	461.41	-735.05	586.03	332.88	-797.25	359.79	458.54	-738.84	293.09	444.17	-804.64	283.42	444.37	-733.2	368.18	456.72	-776.28	146.77	425.64	-754.22	150.61	338.31	-837.38	104.57	367.58	-823.32	74.217	339.36	-832.06	74.508	403.32	-663.19	72.471	466.14	-622.48	80.349	351.19	-565.16	98.247	404.19	-932.9	720.96	159.24	-894.85	637.44	222.71	-959.64	636.72	177.26	-867.9	726.91	198.6	-990.41	542.18	195.03	-968.01	547.69	316.08	-1077.3	323.74	204.96	-1023.8	252.66	211.12	-1095.7	254.17	223.12	-1010.8	321.01	198.81	-1077.7	109.04	226.33	-1073.2	111.58	317.42	-1158.3	76.117	264.66	-1156	47.02	295.32	-1150	51.842	233.79	-970.66	44.368	203.24	-957	41.867	324.97	-881.67	54.399	274.84	-985.01	1553.3	316.33	-1051.7	1285.4	310.14
89	0.36667	-803.1	1286.2	325.67	-926.02	1497	492.82	-919.37	1500.6	140.73	-922.52	1814.6	312.8	-869.92	1055.1	442.91	-857.2	1049.3	190.36	NaN	NaN	NaN	-1067	1087.3	263.24	-923.61	989.31	493.51	-958.73	987.24	132.76	-957.59	1131.1	472.85	-925.73	1128.1	154.01	-1078.2	1049.5	305.63	-828.98	760.68	489.11	-739.47	706.94	456.15	-799.73	674.28	471.43	-761.72	794.4	468.13	-740.94	579.7	461.12	-731.8	584.61	332.53	-788.38	357.28	458.24	-728.28	291.99	443.91	-793.91	280.73	444.02	-724.58	367.2	456.41	-761.86	144.29	425.15	-739.5	149.15	337.95	-821.87	100.6	367.11	-806.78	70.787	338.72	-815.63	70.527	402.69	-646.65	72.947	465.37	-606.34	82.641	350.48	-549.48	101.91	403.57	-929.35	720.58	159.59	-891.9	636.77	222.91	-956.75	636.49	177.54	-864.34	726.1	198.79	-988.2	542.04	195.23	-965.65	547.37	316.38	-1076.1	323.94	205.17	-1022.9	252.64	211.28	-1094.8	254.46	223.33	-1009.7	320.92	198.97	-1077.6	109.2	226.51	-1072.9	111.66	317.57	-1158.2	76.263	264.85	-1155.9	47.115	295.46	-1150	52.03	233.94	-970.61	44.363	203.27	-956.89	41.734	325	-881.54	54.079	274.86	-979.7	1552.8	316.41	-1046.3	1284.9	310.11
90	0.37083	-797.72	1285.6	325.81	-920.83	1496.4	492.97	-914.06	1500.1	140.88	-917.22	1814.1	313	-864.42	1054.6	443.17	-851.84	1048.5	190.6	NaN	NaN	NaN	-1061.9	1086.8	263.46	-918.15	988.75	493.85	-953.54	986.6	133.07	-952.13	1130.6	473.08	-920.86	1127.5	154.46	-1072.8	1048.9	305.94	-825.44	759.64	489.29	-735.72	705.29	456.04	-796.16	672.97	471.39	-757.43	792.88	468.11	-737.23	578.37	460.82	-728.62	583.12	332.16	-779.69	354.83	457.91	-717.97	290.97	443.64	-783.39	278.15	443.65	-716.16	366.26	456.1	-747.71	141.99	424.67	-725.09	147.88	337.59	-806.62	96.858	366.63	-790.54	67.616	338.07	-799.45	66.787	402.05	-630.45	73.584	464.55	-590.61	85.118	349.72	-534.22	105.71	402.9	-925.72	720.17	159.94	-888.87	636.08	223.1	-953.79	636.23	177.84	-860.73	725.27	198.98	-985.91	541.88	195.43	-963.18	547.04	316.68	-1074.8	324.14	205.39	-1022	252.62	211.44	-1093.8	254.76	223.54	-1008.5	320.82	199.13	-1077.4	109.39	226.7	-1072.6	111.75	317.74	-1158.1	76.416	265.05	-1155.8	47.213	295.61	-1149.9	52.223	234.1	-970.56	44.362	203.31	-956.78	41.603	325.03	-881.42	53.752	274.88	-974.37	1552.2	316.5	-1040.8	1284.3	310.09
91	0.375	-792.33	1285.1	325.96	-915.63	1495.8	493.14	-908.76	1499.5	141.03	-911.91	1813.5	313.22	-858.9	1054.1	443.43	-846.45	1047.7	190.85	NaN	NaN	NaN	-1056.8	1086.3	263.7	-912.67	988.16	494.19	-948.31	985.93	133.39	-946.65	1130.1	473.32	-915.97	1126.8	154.93	-1067.3	1048.4	306.27	-821.89	758.53	489.51	-732.01	703.59	455.94	-792.63	671.6	471.38	-753.18	791.3	468.12	-733.57	577	460.53	-725.5	581.59	331.79	-771.19	352.47	457.57	-707.91	290.01	443.35	-773.09	275.69	443.25	-707.94	365.35	455.8	-733.85	139.86	424.17	-711.02	146.79	337.23	-791.66	93.353	366.16	-774.64	64.7	337.41	-783.57	63.287	401.41	-614.63	74.366	463.68	-575.33	87.748	348.92	-519.42	109.62	402.19	-922	719.75	160.3	-885.75	635.38	223.28	-950.75	635.95	178.13	-857.06	724.43	199.16	-983.51	541.7	195.65	-960.61	546.69	316.98	-1073.5	324.35	205.62	-1021.1	252.6	211.61	-1092.8	255.09	223.74	-1007.2	320.71	199.31	-1077.2	109.6	226.89	-1072.3	111.86	317.9	-1158	76.577	265.25	-1155.7	47.316	295.77	-1149.8	52.423	234.27	-970.5	44.362	203.35	-956.66	41.475	325.07	-881.29	53.419	274.9	-969.03	1551.7	316.59	-1035.4	1283.7	310.08
92	0.37917	-786.93	1284.4	326.1	-910.42	1495.2	493.31	-903.49	1499	141.2	-906.61	1813	313.44	-853.36	1053.6	443.7	-841.03	1046.9	191.11	NaN	NaN	NaN	-1051.7	1085.8	263.96	-907.19	987.53	494.54	-943.04	985.22	133.74	-941.15	1129.6	473.58	-911	1126.1	155.39	-1061.7	1047.7	306.62	-818.3	757.36	489.76	-728.33	701.86	455.84	-789.12	670.19	471.37	-748.94	789.69	468.15	-729.97	575.59	460.23	-722.41	580.03	331.4	-762.87	350.19	457.21	-698.12	289.11	443.07	-763.03	273.36	442.83	-699.92	364.47	455.5	-720.32	137.91	423.69	-697.34	145.88	336.87	-777.05	90.08	365.7	-759.13	62.03	336.76	-768.03	60.025	400.76	-599.23	75.272	462.77	-560.54	90.498	348.09	-505.11	113.6	401.44	-918.21	719.3	160.65	-882.55	634.67	223.45	-947.63	635.65	178.43	-853.33	723.57	199.33	-981.02	541.5	195.87	-957.94	546.33	317.28	-1072.1	324.58	205.84	-1020.1	252.57	211.78	-1091.7	255.44	223.94	-1005.9	320.61	199.48	-1077	109.83	227.08	-1072	111.98	318.08	-1157.9	76.75	265.47	-1155.7	47.427	295.95	-1149.8	52.631	234.45	-970.45	44.365	203.41	-956.55	41.348	325.11	-881.16	53.079	274.92	-963.68	1551.1	316.69	-1029.9	1283	310.09
93	0.38333	-781.51	1283.8	326.25	-905.2	1494.6	493.5	-898.24	1498.4	141.38	-901.31	1812.4	313.66	-847.8	1053	443.98	-835.59	1046.1	191.38	NaN	NaN	NaN	-1046.6	1085.2	264.24	-901.68	986.88	494.89	-937.73	984.49	134.1	-935.62	1129.1	473.85	-905.89	1125.4	155.85	-1056.2	1047.1	306.99	-814.66	756.14	490.03	-724.67	700.11	455.76	-785.61	668.76	471.37	-744.71	788.05	468.21	-726.4	574.16	459.93	-719.34	578.45	331.01	-754.76	348	456.82	-688.61	288.28	442.77	-753.23	271.14	442.39	-692.12	363.62	455.21	-707.14	136.12	423.2	-684.08	145.11	336.51	-762.8	87.037	365.25	-744.05	59.595	336.1	-752.87	57	400.12	-584.28	76.283	461.82	-546.27	93.329	347.24	-491.31	117.62	400.65	-914.34	718.83	160.99	-879.25	633.95	223.62	-944.42	635.32	178.72	-849.55	722.7	199.49	-978.42	541.29	196.1	-955.15	545.95	317.57	-1070.7	324.81	206.08	-1019	252.54	211.97	-1090.6	255.81	224.13	-1004.5	320.5	199.67	-1076.7	110.09	227.28	-1071.7	112.12	318.26	-1157.8	76.938	265.71	-1155.6	47.549	296.14	-1149.7	52.852	234.64	-970.4	44.369	203.47	-956.43	41.225	325.15	-881.02	52.732	274.95	-958.33	1550.5	316.8	-1024.5	1282.3	310.12
94	0.3875	-776.08	1283.2	326.41	-899.97	1493.9	493.69	-892.99	1497.8	141.56	-896.01	1811.8	313.9	-842.23	1052.5	444.27	-830.13	1045.2	191.66	NaN	NaN	NaN	-1041.4	1084.5	264.54	-896.17	986.2	495.24	-932.38	983.74	134.48	-930.08	1128.6	474.14	-900.62	1124.6	156.3	-1050.7	1046.4	307.38	-810.94	754.87	490.31	-721.01	698.34	455.67	-782.11	667.31	471.37	-740.48	786.41	468.29	-722.85	572.72	459.62	-716.27	576.87	330.6	-746.85	345.9	456.42	-679.4	287.5	442.47	-743.69	269.04	441.92	-684.54	362.79	454.91	-694.36	134.49	422.73	-671.27	144.49	336.15	-748.98	84.217	364.81	-729.45	57.382	335.46	-738.14	54.207	399.49	-569.82	77.377	460.84	-532.55	96.2	346.35	-478.04	121.63	399.82	-910.41	718.35	161.33	-875.85	633.22	223.77	-941.12	634.97	179.02	-845.72	721.83	199.64	-975.71	541.05	196.34	-952.25	545.55	317.87	-1069.2	325.06	206.31	-1017.9	252.51	212.16	-1089.4	256.2	224.32	-1003	320.39	199.86	-1076.4	110.37	227.48	-1071.4	112.28	318.45	-1157.6	77.143	265.95	-1155.5	47.686	296.34	-1149.7	53.088	234.85	-970.34	44.375	203.54	-956.3	41.104	325.2	-880.88	52.379	274.97	-952.96	1549.8	316.92	-1019	1281.6	310.16
95	0.39167	-770.64	1282.5	326.57	-894.73	1493.2	493.88	-887.74	1497.1	141.76	-890.71	1811.1	314.15	-836.64	1051.9	444.56	-824.66	1044.3	191.94	NaN	NaN	NaN	-1036.1	1083.9	264.87	-890.65	985.51	495.6	-926.98	982.96	134.87	-924.51	1128	474.44	-895.15	1123.7	156.73	-1045.1	1045.7	307.79	-807.13	753.55	490.59	-717.34	696.57	455.57	-778.58	665.85	471.35	-736.24	784.76	468.41	-719.31	571.27	459.3	-713.19	575.29	330.18	-739.16	343.88	455.99	-670.48	286.76	442.16	-734.45	267.06	441.43	-677.17	361.99	454.62	-682	133.01	422.27	-658.94	143.98	335.79	-735.61	81.613	364.39	-715.36	55.376	334.83	-723.88	51.639	398.88	-555.88	78.53	459.85	-519.4	99.067	345.45	-465.33	125.58	398.95	-906.42	717.84	161.66	-872.36	632.47	223.92	-937.73	634.6	179.32	-841.82	720.95	199.78	-972.89	540.8	196.59	-949.24	545.14	318.16	-1067.6	325.32	206.55	-1016.7	252.48	212.36	-1088.1	256.62	224.51	-1001.5	320.27	200.06	-1076.1	110.68	227.69	-1071	112.47	318.64	-1157.5	77.37	266.21	-1155.4	47.844	296.55	-1149.6	53.345	235.07	-970.29	44.382	203.62	-956.18	40.987	325.25	-880.73	52.02	275	-947.59	1549.2	317.04	-1013.5	1280.9	310.23
